<?xml version="1.0" standalone="no"?>
<!DOCTYPE svg PUBLIC "-//W3C//DTD SVG 20010904//EN"
 "http://www.w3.org/TR/2001/REC-SVG-20010904/DTD/svg10.dtd">
<svg version="1.0" xmlns="http://www.w3.org/2000/svg"
 width="200.000000pt" height="200.000000pt" viewBox="0 0 200.000000 200.000000"
 preserveAspectRatio="xMidYMid meet">
<metadata>
Created by potrace 1.11, written by Peter Selinger 2001-2013
</metadata>
<g transform="translate(0.000000,200.000000) scale(0.100000,-0.100000)"
fill="#000000" stroke="none">
<path d="M1188 1663 c-9 -10 -23 -32 -32 -50 -9 -17 -30 -40 -47 -50 -47 -28
-79 -93 -83 -169 -3 -48 -99 -134 -151 -134 -30 0 -112 -95 -151 -176 l-39
-79 1 -125 c1 -69 3 -150 6 -180 3 -34 0 -64 -9 -80 -49 -94 -14 -188 90 -242
76 -39 266 -25 338 25 31 22 7 30 -64 21 -153 -19 -244 -5 -290 46 -21 23 -27
40 -25 63 2 22 8 31 18 29 29 -7 325 -8 350 -2 51 13 28 70 -28 70 -24 0 -24
1 -9 18 10 10 17 24 17 30 0 24 16 11 32 -26 24 -56 54 -82 91 -82 37 0 62 13
53 28 -3 6 -2 13 4 17 20 12 10 36 -20 46 l-30 11 0 141 c1 152 -2 142 67 265
24 43 29 99 18 208 l-7 72 31 18 c17 10 38 33 46 51 l16 33 -43 41 c-24 22
-57 46 -73 54 -28 11 -31 17 -32 58 -2 68 -16 83 -45 50z m99 -154 c16 -16 5
-39 -18 -39 -12 0 -19 7 -19 18 0 31 17 41 37 21z"/>
</g>
</svg>
